<mxfile host="www.draw.io" modified="2019-11-13T03:15:16.838Z" agent="Mozilla/5.0 (Macintosh; Intel Mac OS X 10_14_6) AppleWebKit/537.36 (KHTML, like Gecko) Chrome/78.0.3904.97 Safari/537.36" etag="wTmp2UBGms9VJY_MNN1F" version="12.2.4" type="github" pages="1">
  <diagram id="6I0OCvxSQrVGMHxT2VVA" name="Page-1">
    <mxGraphModel dx="1172" dy="1779" grid="1" gridSize="10" guides="1" tooltips="1" connect="1" arrows="1" fold="1" page="1" pageScale="1" pageWidth="850" pageHeight="1100" math="0" shadow="0">
      <root>
        <mxCell id="0"/>
        <mxCell id="1" parent="0"/>
        <mxCell id="dKdSaXE48SgPbhcamS2K-30" value="" style="whiteSpace=wrap;html=1;strokeColor=none;strokeWidth=1;fillColor=#f5f5f5;fontSize=14;" parent="1" vertex="1">
          <mxGeometry x="201" y="740" width="1080" height="300" as="geometry"/>
        </mxCell>
        <mxCell id="dKdSaXE48SgPbhcamS2K-31" value="" style="whiteSpace=wrap;html=1;strokeColor=none;strokeWidth=1;fillColor=#f5f5f5;fontSize=14;" parent="1" vertex="1">
          <mxGeometry x="201" y="560" width="1080" height="160" as="geometry"/>
        </mxCell>
        <mxCell id="dKdSaXE48SgPbhcamS2K-32" value="" style="whiteSpace=wrap;html=1;strokeColor=none;strokeWidth=1;fillColor=#f5f5f5;fontSize=14;" parent="1" vertex="1">
          <mxGeometry x="200" y="319" width="1080" height="140" as="geometry"/>
        </mxCell>
        <mxCell id="dKdSaXE48SgPbhcamS2K-33" value="" style="html=1;whiteSpace=wrap;fillColor=#AFFFAF;shape=mxgraph.archimate3.application;appType=node;archiType=square;fontSize=14;verticalAlign=top;" parent="1" vertex="1">
          <mxGeometry x="385" y="870" width="870" height="145" as="geometry"/>
        </mxCell>
        <mxCell id="dKdSaXE48SgPbhcamS2K-34" style="edgeStyle=elbowEdgeStyle;rounded=1;elbow=vertical;html=1;startSize=10;endArrow=block;endFill=0;endSize=10;jettySize=auto;orthogonalLoop=1;strokeColor=#808080;fontSize=14;dashed=1;" parent="1" source="dKdSaXE48SgPbhcamS2K-35" target="dKdSaXE48SgPbhcamS2K-40" edge="1">
          <mxGeometry relative="1" as="geometry"/>
        </mxCell>
        <mxCell id="dKdSaXE48SgPbhcamS2K-35" value="&lt;div&gt;&lt;br&gt;&lt;/div&gt;System&lt;div&gt;Software&lt;/div&gt;" style="html=1;whiteSpace=wrap;fillColor=#AFFFAF;shape=mxgraph.archimate3.tech;techType=sysSw;fontSize=14;" parent="1" vertex="1">
          <mxGeometry x="444.5" y="920" width="140" height="60" as="geometry"/>
        </mxCell>
        <mxCell id="dKdSaXE48SgPbhcamS2K-36" style="edgeStyle=elbowEdgeStyle;rounded=1;elbow=vertical;html=1;startSize=10;endArrow=block;endFill=0;endSize=10;jettySize=auto;orthogonalLoop=1;strokeColor=#808080;fontSize=14;dashed=1;" parent="1" source="dKdSaXE48SgPbhcamS2K-37" target="dKdSaXE48SgPbhcamS2K-45" edge="1">
          <mxGeometry relative="1" as="geometry"/>
        </mxCell>
        <mxCell id="dKdSaXE48SgPbhcamS2K-37" value="&lt;div&gt;&lt;br&gt;&lt;/div&gt;&lt;div&gt;&lt;span&gt;System&lt;/span&gt;&lt;div&gt;Software&lt;/div&gt;&lt;/div&gt;" style="html=1;whiteSpace=wrap;fillColor=#AFFFAF;shape=mxgraph.archimate3.tech;techType=sysSw;fontSize=14;" parent="1" vertex="1">
          <mxGeometry x="712.5" y="920" width="140" height="60" as="geometry"/>
        </mxCell>
        <mxCell id="dKdSaXE48SgPbhcamS2K-40" value="Service" style="html=1;whiteSpace=wrap;fillColor=#AFFFAF;shape=mxgraph.archimate3.service;fontSize=14;" parent="1" vertex="1">
          <mxGeometry x="439.5" y="760" width="150" height="50" as="geometry"/>
        </mxCell>
        <mxCell id="dKdSaXE48SgPbhcamS2K-45" value="Service" style="html=1;whiteSpace=wrap;fillColor=#AFFFAF;shape=mxgraph.archimate3.service;fontSize=14;" parent="1" vertex="1">
          <mxGeometry x="707.5" y="760" width="150" height="50" as="geometry"/>
        </mxCell>
        <mxCell id="dKdSaXE48SgPbhcamS2K-47" value="Cms-Server" style="shape=component;align=center;fillColor=#99ffff;gradientColor=none;fontSize=14;" parent="1" vertex="1">
          <mxGeometry x="410" y="570" width="155" height="58" as="geometry"/>
        </mxCell>
        <mxCell id="dnPY5TdkdE1YGEGxPcPt-51" value="" style="edgeStyle=orthogonalEdgeStyle;rounded=0;orthogonalLoop=1;jettySize=auto;html=1;" edge="1" parent="1" source="dKdSaXE48SgPbhcamS2K-54" target="dKdSaXE48SgPbhcamS2K-56">
          <mxGeometry relative="1" as="geometry"/>
        </mxCell>
        <mxCell id="dKdSaXE48SgPbhcamS2K-54" value="开放链接平台&lt;br&gt;统一接口" style="html=1;whiteSpace=wrap;fillColor=#ffff99;shape=mxgraph.archimate3.application;appType=func;archiType=rounded;fontSize=14;" parent="1" vertex="1">
          <mxGeometry x="835.5" y="351.5" width="150" height="75" as="geometry"/>
        </mxCell>
        <mxCell id="dKdSaXE48SgPbhcamS2K-55" value="统一权限中心&lt;br&gt;SSO" style="html=1;whiteSpace=wrap;fillColor=#ffff99;shape=mxgraph.archimate3.application;appType=collab;archiType=square;fontSize=14;" parent="1" vertex="1">
          <mxGeometry x="425.5" y="351.5" width="150" height="75" as="geometry"/>
        </mxCell>
        <mxCell id="dnPY5TdkdE1YGEGxPcPt-38" value="" style="edgeStyle=orthogonalEdgeStyle;rounded=0;orthogonalLoop=1;jettySize=auto;html=1;entryX=0.35;entryY=0.02;entryDx=0;entryDy=0;entryPerimeter=0;" edge="1" parent="1" source="dKdSaXE48SgPbhcamS2K-56" target="dnPY5TdkdE1YGEGxPcPt-19">
          <mxGeometry relative="1" as="geometry">
            <mxPoint x="706" y="480" as="targetPoint"/>
          </mxGeometry>
        </mxCell>
        <mxCell id="dKdSaXE48SgPbhcamS2K-56" value="服务路由适配转发&lt;br&gt;GateWay" style="html=1;whiteSpace=wrap;fillColor=#ffff99;shape=mxgraph.archimate3.application;appType=event;archiType=rounded;fontSize=14;" parent="1" vertex="1">
          <mxGeometry x="630.5" y="351.5" width="150" height="75" as="geometry"/>
        </mxCell>
        <mxCell id="dKdSaXE48SgPbhcamS2K-57" value="服务注册与监控&lt;br&gt;Monitor" style="html=1;whiteSpace=wrap;fillColor=#ffff99;shape=mxgraph.archimate3.application;appType=proc;archiType=rounded;fontSize=14;" parent="1" vertex="1">
          <mxGeometry x="1040.5" y="350" width="150" height="75" as="geometry"/>
        </mxCell>
        <mxCell id="dKdSaXE48SgPbhcamS2K-63" value="&amp;nbsp;" style="text;strokeColor=none;fillColor=none;html=1;fontSize=24;fontStyle=1;verticalAlign=middle;align=center;" parent="1" vertex="1">
          <mxGeometry x="50" y="-40" width="1590" height="40" as="geometry"/>
        </mxCell>
        <mxCell id="dnPY5TdkdE1YGEGxPcPt-1" value="" style="whiteSpace=wrap;html=1;strokeColor=none;strokeWidth=1;fillColor=#f5f5f5;fontSize=14;" vertex="1" parent="1">
          <mxGeometry x="200.5" y="140" width="840" height="140" as="geometry"/>
        </mxCell>
        <mxCell id="dnPY5TdkdE1YGEGxPcPt-2" value="前台产品" style="html=1;outlineConnect=0;whiteSpace=wrap;fillColor=#FFE0E0;shape=mxgraph.archimate3.application;archiType=rounded;" vertex="1" parent="1">
          <mxGeometry x="210.5" y="172.5" width="150" height="75" as="geometry"/>
        </mxCell>
        <mxCell id="dnPY5TdkdE1YGEGxPcPt-3" value="服务接入层" style="html=1;outlineConnect=0;whiteSpace=wrap;fillColor=#FFE0E0;shape=mxgraph.archimate3.application;archiType=rounded;" vertex="1" parent="1">
          <mxGeometry x="210" y="351.5" width="150" height="75" as="geometry"/>
        </mxCell>
        <mxCell id="dnPY5TdkdE1YGEGxPcPt-4" value="平台产品层" style="html=1;outlineConnect=0;whiteSpace=wrap;fillColor=#FFE0E0;shape=mxgraph.archimate3.application;archiType=rounded;" vertex="1" parent="1">
          <mxGeometry x="210.5" y="590" width="150" height="75" as="geometry"/>
        </mxCell>
        <mxCell id="dnPY5TdkdE1YGEGxPcPt-15" value="基础业务处理层" style="html=1;outlineConnect=0;whiteSpace=wrap;fillColor=#FFE0E0;shape=mxgraph.archimate3.application;archiType=rounded;" vertex="1" parent="1">
          <mxGeometry x="210.5" y="845" width="150" height="75" as="geometry"/>
        </mxCell>
        <mxCell id="dnPY5TdkdE1YGEGxPcPt-6" value="" style="whiteSpace=wrap;html=1;strokeColor=none;strokeWidth=1;fillColor=#f5f5f5;fontSize=14;" vertex="1" parent="1">
          <mxGeometry x="200.5" y="1120" width="1075" height="160" as="geometry"/>
        </mxCell>
        <mxCell id="dnPY5TdkdE1YGEGxPcPt-7" value="数据层" style="html=1;outlineConnect=0;whiteSpace=wrap;fillColor=#FFE0E0;shape=mxgraph.archimate3.application;archiType=rounded;" vertex="1" parent="1">
          <mxGeometry x="210.5" y="1160" width="150" height="75" as="geometry"/>
        </mxCell>
        <mxCell id="dnPY5TdkdE1YGEGxPcPt-9" value="" style="endArrow=none;dashed=1;html=1;" edge="1" parent="1">
          <mxGeometry width="50" height="50" relative="1" as="geometry">
            <mxPoint x="161" y="1080" as="sourcePoint"/>
            <mxPoint x="161" y="520" as="targetPoint"/>
          </mxGeometry>
        </mxCell>
        <mxCell id="dnPY5TdkdE1YGEGxPcPt-10" value="" style="endArrow=none;dashed=1;html=1;" edge="1" parent="1">
          <mxGeometry width="50" height="50" relative="1" as="geometry">
            <mxPoint x="1320" y="1080" as="sourcePoint"/>
            <mxPoint x="1320" y="520" as="targetPoint"/>
          </mxGeometry>
        </mxCell>
        <mxCell id="dnPY5TdkdE1YGEGxPcPt-12" value="APP / H5" style="html=1;outlineConnect=0;whiteSpace=wrap;fillColor=#ffff99;shape=mxgraph.archimate3.application;appType=actor;archiType=square;" vertex="1" parent="1">
          <mxGeometry x="425.5" y="173" width="150" height="75" as="geometry"/>
        </mxCell>
        <mxCell id="dnPY5TdkdE1YGEGxPcPt-13" value="小程序" style="html=1;outlineConnect=0;whiteSpace=wrap;fillColor=#fff2cc;shape=mxgraph.archimate3.application;appType=actor;archiType=square;strokeColor=#d6b656;" vertex="1" parent="1">
          <mxGeometry x="630.5" y="173" width="150" height="75" as="geometry"/>
        </mxCell>
        <mxCell id="dnPY5TdkdE1YGEGxPcPt-50" value="" style="edgeStyle=orthogonalEdgeStyle;rounded=0;orthogonalLoop=1;jettySize=auto;html=1;entryX=0.5;entryY=0;entryDx=0;entryDy=0;entryPerimeter=0;" edge="1" parent="1" target="dKdSaXE48SgPbhcamS2K-54">
          <mxGeometry relative="1" as="geometry">
            <mxPoint x="911" y="279" as="sourcePoint"/>
          </mxGeometry>
        </mxCell>
        <mxCell id="dnPY5TdkdE1YGEGxPcPt-14" value="PC站" style="html=1;outlineConnect=0;whiteSpace=wrap;fillColor=#fff2cc;shape=mxgraph.archimate3.application;appType=actor;archiType=square;strokeColor=#d6b656;" vertex="1" parent="1">
          <mxGeometry x="835.5" y="173" width="150" height="75" as="geometry"/>
        </mxCell>
        <mxCell id="dnPY5TdkdE1YGEGxPcPt-17" value="" style="endArrow=none;dashed=1;html=1;" edge="1" parent="1">
          <mxGeometry width="50" height="50" relative="1" as="geometry">
            <mxPoint x="1320" y="520" as="sourcePoint"/>
            <mxPoint x="160" y="520" as="targetPoint"/>
          </mxGeometry>
        </mxCell>
        <mxCell id="dnPY5TdkdE1YGEGxPcPt-18" value="" style="endArrow=none;dashed=1;html=1;" edge="1" parent="1">
          <mxGeometry width="50" height="50" relative="1" as="geometry">
            <mxPoint x="1320" y="1080" as="sourcePoint"/>
            <mxPoint x="160" y="1080" as="targetPoint"/>
          </mxGeometry>
        </mxCell>
        <mxCell id="dnPY5TdkdE1YGEGxPcPt-19" value="&lt;font style=&quot;font-size: 18px&quot;&gt;服务中台&lt;/font&gt;" style="text;html=1;strokeColor=none;fillColor=none;align=center;verticalAlign=middle;whiteSpace=wrap;rounded=0;" vertex="1" parent="1">
          <mxGeometry x="651" y="520" width="157" height="50" as="geometry"/>
        </mxCell>
        <mxCell id="dnPY5TdkdE1YGEGxPcPt-20" value="" style="whiteSpace=wrap;html=1;strokeColor=none;strokeWidth=1;fillColor=#f5f5f5;fontSize=14;" vertex="1" parent="1">
          <mxGeometry x="1080" y="141" width="200" height="140" as="geometry"/>
        </mxCell>
        <mxCell id="dnPY5TdkdE1YGEGxPcPt-21" value="外接服务" style="html=1;outlineConnect=0;whiteSpace=wrap;fillColor=#fff2cc;shape=mxgraph.archimate3.application;appType=actor;archiType=square;strokeColor=#d6b656;" vertex="1" parent="1">
          <mxGeometry x="1105" y="173.5" width="150" height="75" as="geometry"/>
        </mxCell>
        <mxCell id="dnPY5TdkdE1YGEGxPcPt-22" value="CMS" style="shape=cylinder;whiteSpace=wrap;html=1;boundedLbl=1;backgroundOutline=1;fillColor=#dae8fc;strokeColor=#6c8ebf;" vertex="1" parent="1">
          <mxGeometry x="460" y="1160" width="60" height="80" as="geometry"/>
        </mxCell>
        <mxCell id="dnPY5TdkdE1YGEGxPcPt-23" value="CRM" style="shape=cylinder;whiteSpace=wrap;html=1;boundedLbl=1;backgroundOutline=1;fillColor=#dae8fc;strokeColor=#6c8ebf;" vertex="1" parent="1">
          <mxGeometry x="875" y="1160" width="60" height="80" as="geometry"/>
        </mxCell>
        <mxCell id="dnPY5TdkdE1YGEGxPcPt-24" value="合同" style="shape=cylinder;whiteSpace=wrap;html=1;boundedLbl=1;backgroundOutline=1;fillColor=#dae8fc;strokeColor=#6c8ebf;" vertex="1" parent="1">
          <mxGeometry x="980" y="1160" width="60" height="80" as="geometry"/>
        </mxCell>
        <mxCell id="dnPY5TdkdE1YGEGxPcPt-25" value="工单" style="shape=cylinder;whiteSpace=wrap;html=1;boundedLbl=1;backgroundOutline=1;fillColor=#dae8fc;strokeColor=#6c8ebf;" vertex="1" parent="1">
          <mxGeometry x="1080" y="1157.5" width="60" height="80" as="geometry"/>
        </mxCell>
        <mxCell id="dnPY5TdkdE1YGEGxPcPt-26" value="Lock" style="shape=cylinder;whiteSpace=wrap;html=1;boundedLbl=1;backgroundOutline=1;fillColor=#dae8fc;strokeColor=#6c8ebf;" vertex="1" parent="1">
          <mxGeometry x="540" y="1160" width="60" height="80" as="geometry"/>
        </mxCell>
        <mxCell id="dnPY5TdkdE1YGEGxPcPt-27" value="SSO" style="shape=cylinder;whiteSpace=wrap;html=1;boundedLbl=1;backgroundOutline=1;fillColor=#dae8fc;strokeColor=#6c8ebf;" vertex="1" parent="1">
          <mxGeometry x="380.5" y="1160" width="60" height="80" as="geometry"/>
        </mxCell>
        <mxCell id="dnPY5TdkdE1YGEGxPcPt-28" value="Pay" style="shape=cylinder;whiteSpace=wrap;html=1;boundedLbl=1;backgroundOutline=1;fillColor=#dae8fc;strokeColor=#6c8ebf;" vertex="1" parent="1">
          <mxGeometry x="621" y="1160" width="60" height="80" as="geometry"/>
        </mxCell>
        <mxCell id="dnPY5TdkdE1YGEGxPcPt-31" value="  Mobile-Server" style="shape=component;align=center;fillColor=#99ffff;gradientColor=none;fontSize=14;" vertex="1" parent="1">
          <mxGeometry x="410" y="650" width="155" height="58" as="geometry"/>
        </mxCell>
        <mxCell id="dnPY5TdkdE1YGEGxPcPt-32" value="&lt;div&gt;&lt;br&gt;&lt;/div&gt;&lt;div&gt;&lt;span&gt;System&lt;/span&gt;&lt;div&gt;Software&lt;/div&gt;&lt;/div&gt;" style="html=1;whiteSpace=wrap;fillColor=#AFFFAF;shape=mxgraph.archimate3.tech;techType=sysSw;fontSize=14;" vertex="1" parent="1">
          <mxGeometry x="975" y="920" width="140" height="60" as="geometry"/>
        </mxCell>
        <mxCell id="dnPY5TdkdE1YGEGxPcPt-33" value="Service" style="html=1;whiteSpace=wrap;fillColor=#AFFFAF;shape=mxgraph.archimate3.service;fontSize=14;" vertex="1" parent="1">
          <mxGeometry x="965" y="760" width="150" height="50" as="geometry"/>
        </mxCell>
        <mxCell id="dnPY5TdkdE1YGEGxPcPt-34" style="edgeStyle=elbowEdgeStyle;rounded=1;elbow=vertical;html=1;startSize=10;endArrow=block;endFill=0;endSize=10;jettySize=auto;orthogonalLoop=1;strokeColor=#808080;fontSize=14;dashed=1;" edge="1" parent="1">
          <mxGeometry relative="1" as="geometry">
            <mxPoint x="1040" y="919" as="sourcePoint"/>
            <mxPoint x="1040" y="810" as="targetPoint"/>
          </mxGeometry>
        </mxCell>
        <mxCell id="dnPY5TdkdE1YGEGxPcPt-35" value="redis&amp;nbsp; &amp;nbsp;&amp;nbsp;" style="html=1;outlineConnect=0;whiteSpace=wrap;fillColor=#ffff99;shape=mxgraph.archimate3.role;" vertex="1" parent="1">
          <mxGeometry x="1170" y="1175" width="90" height="50" as="geometry"/>
        </mxCell>
        <mxCell id="dnPY5TdkdE1YGEGxPcPt-41" value=" Pay-Gateway" style="shape=component;align=center;fillColor=#99ffff;gradientColor=none;fontSize=14;" vertex="1" parent="1">
          <mxGeometry x="627.5" y="571" width="155" height="58" as="geometry"/>
        </mxCell>
        <mxCell id="dnPY5TdkdE1YGEGxPcPt-42" value="CRM" style="shape=component;align=center;fillColor=#99ffff;gradientColor=none;fontSize=14;" vertex="1" parent="1">
          <mxGeometry x="625.5" y="650" width="155" height="58" as="geometry"/>
        </mxCell>
        <mxCell id="dnPY5TdkdE1YGEGxPcPt-43" value="工单-Server" style="shape=component;align=center;fillColor=#99ffff;gradientColor=none;fontSize=14;" vertex="1" parent="1">
          <mxGeometry x="845" y="571" width="155" height="58" as="geometry"/>
        </mxCell>
        <mxCell id="dnPY5TdkdE1YGEGxPcPt-44" value="合同-Server" style="shape=component;align=center;fillColor=#99ffff;gradientColor=none;fontSize=14;" vertex="1" parent="1">
          <mxGeometry x="843" y="650" width="155" height="58" as="geometry"/>
        </mxCell>
        <mxCell id="dnPY5TdkdE1YGEGxPcPt-45" value="Lock-Server" style="shape=component;align=center;fillColor=#99ffff;gradientColor=none;fontSize=14;" vertex="1" parent="1">
          <mxGeometry x="1060" y="571" width="155" height="58" as="geometry"/>
        </mxCell>
        <mxCell id="dnPY5TdkdE1YGEGxPcPt-46" value=" 云打印-Server" style="shape=component;align=center;fillColor=#99ffff;gradientColor=none;fontSize=14;" vertex="1" parent="1">
          <mxGeometry x="1060" y="650" width="155" height="58" as="geometry"/>
        </mxCell>
        <mxCell id="dnPY5TdkdE1YGEGxPcPt-47" value="" style="endArrow=none;dashed=1;html=1;" edge="1" parent="1">
          <mxGeometry width="50" height="50" relative="1" as="geometry">
            <mxPoint x="1320" y="290" as="sourcePoint"/>
            <mxPoint x="160" y="290" as="targetPoint"/>
          </mxGeometry>
        </mxCell>
        <mxCell id="dnPY5TdkdE1YGEGxPcPt-48" value="" style="endArrow=none;dashed=1;html=1;" edge="1" parent="1">
          <mxGeometry width="50" height="50" relative="1" as="geometry">
            <mxPoint x="1320" y="480" as="sourcePoint"/>
            <mxPoint x="160" y="480" as="targetPoint"/>
          </mxGeometry>
        </mxCell>
        <mxCell id="dnPY5TdkdE1YGEGxPcPt-49" value="" style="endArrow=none;dashed=1;html=1;" edge="1" parent="1">
          <mxGeometry width="50" height="50" relative="1" as="geometry">
            <mxPoint x="160" y="480" as="sourcePoint"/>
            <mxPoint x="160" y="290" as="targetPoint"/>
          </mxGeometry>
        </mxCell>
        <mxCell id="dnPY5TdkdE1YGEGxPcPt-52" value="" style="endArrow=classic;startArrow=classic;html=1;" edge="1" parent="1" source="dKdSaXE48SgPbhcamS2K-55">
          <mxGeometry width="50" height="50" relative="1" as="geometry">
            <mxPoint x="575.5" y="439" as="sourcePoint"/>
            <mxPoint x="630" y="389" as="targetPoint"/>
          </mxGeometry>
        </mxCell>
        <mxCell id="dnPY5TdkdE1YGEGxPcPt-53" value="&lt;font style=&quot;font-size: 18px&quot;&gt;请求中台&lt;/font&gt;" style="text;html=1;strokeColor=none;fillColor=none;align=center;verticalAlign=middle;whiteSpace=wrap;rounded=0;" vertex="1" parent="1">
          <mxGeometry x="651" y="280" width="157" height="50" as="geometry"/>
        </mxCell>
        <mxCell id="dnPY5TdkdE1YGEGxPcPt-56" value="" style="endArrow=none;dashed=1;html=1;" edge="1" parent="1">
          <mxGeometry width="50" height="50" relative="1" as="geometry">
            <mxPoint x="1320" y="480" as="sourcePoint"/>
            <mxPoint x="1320" y="290" as="targetPoint"/>
          </mxGeometry>
        </mxCell>
      </root>
    </mxGraphModel>
  </diagram>
</mxfile>
